<?xml version="1.0" encoding="utf-8"?>
<!-- Generator: Adobe Illustrator 23.0.0, SVG Export Plug-In . SVG Version: 6.00 Build 0)  -->
<svg version="1.1" xmlns="http://www.w3.org/2000/svg" xmlns:xlink="http://www.w3.org/1999/xlink" x="0px" y="0px"
	 viewBox="0 0 512 512" style="enable-background:new 0 0 512 512;" xml:space="preserve">
<style type="text/css">
	.st0{fill:#2B2B2B;}
</style>
<path id="Down_Arrow_9_" class="st0" d="M256,488.7c-6,0-11.9-2.3-16.4-6.8L6.9,249.2c-9.2-9.2-9.2-23.9,0-32.9
	c9.2-9,23.9-9.2,32.9,0L256,432.6l216.3-216.3c9.2-9.2,23.9-9.2,32.9,0s9.2,23.9,0,32.9L272.4,481.9
	C267.9,486.4,262,488.7,256,488.7L256,488.7z M272.4,295.7L505.1,63c9.2-9.2,9.2-23.9,0-32.9s-23.9-9.2-32.9,0L256,246.4L39.7,30.2
	c-9.2-9.2-23.9-9.2-32.9,0S-2.3,54,6.9,63l232.7,232.7c4.5,4.5,10.5,6.8,16.4,6.8C262,302.6,267.9,300.2,272.4,295.7L272.4,295.7z"
	/>
</svg>
