<?xml version="1.0" encoding="utf-8"?>
<!-- Generator: Adobe Illustrator 23.0.0, SVG Export Plug-In . SVG Version: 6.00 Build 0)  -->
<svg version="1.1" xmlns:svgjs="http://svgjs.com/svgjs"
	 xmlns="http://www.w3.org/2000/svg" xmlns:xlink="http://www.w3.org/1999/xlink" x="0px" y="0px" viewBox="0 0 512 512"
	 style="enable-background:new 0 0 512 512;" xml:space="preserve">
<style type="text/css">
	.st0{fill:#332B28;}
</style>
<g>
	<g>
		<g>
			<path class="st0" d="M438.6,83.5H148.4c-4.1,0-7.5,3.4-7.5,7.5s3.4,7.5,7.5,7.5h290.2c4.1,0,7.5-3.4,7.5-7.5
				S442.8,83.5,438.6,83.5z"/>
			<path class="st0" d="M438.6,141.9H148.4c-4.1,0-7.5,3.4-7.5,7.5s3.4,7.5,7.5,7.5h290.2c4.1,0,7.5-3.4,7.5-7.5
				S442.8,141.9,438.6,141.9z"/>
			<path class="st0" d="M293.5,200.3H148.4c-4.1,0-7.5,3.4-7.5,7.5s3.4,7.5,7.5,7.5h145.1c4.1,0,7.5-3.4,7.5-7.5
				S297.7,200.3,293.5,200.3z"/>
			<path class="st0" d="M463.4,17.1H119.6C92.8,17.1,71,38.9,71,65.7v167.4c0,26.8,21.8,48.6,48.6,48.6h1.7l-9.7,54.1
				c-0.9,5.1,1.5,10.2,6.1,12.6c4.5,2.4,10.1,1.7,13.9-1.8l66.6-63.3c1.1-1,2.5-1.6,4-1.6h261.2c26.8,0,48.6-21.8,48.6-48.6V65.7
				C512,38.9,490.2,17.1,463.4,17.1L463.4,17.1z M497,233.1c0,18.5-15.1,33.6-33.6,33.6H202.2c-5.4,0-10.4,2-14.3,5.7L128,329.2
				l8.5-47c1.5-8.1-4.8-15.5-13-15.5h-3.9c-18.5,0-33.6-15.1-33.6-33.6V65.7c0-18.5,15.1-33.6,33.6-33.6h343.8
				c18.5,0,33.6,15.1,33.6,33.6V233.1z"/>
			<path class="st0" d="M433.5,301.7c-4.1,0-7.5,3.4-7.5,7.5v68.9c0,18.5-15.1,33.6-33.6,33.6H131.2c-5.4,0-10.4,2-14.3,5.7
				L57,474.3l8.5-47c1.5-8.1-4.8-15.5-13-15.5h-3.9c-18.5,0-33.6-15.1-33.6-33.6V210.8c0-17.2,12.9-31.5,29.9-33.4
				c4.1-0.4,7.1-4.1,6.6-8.3c-0.4-4.1-4.1-7.1-8.3-6.6C18.6,165.2,0,185.9,0,210.8v167.4c0,26.8,21.8,48.6,48.6,48.6h1.7l-9.7,54.1
				c-0.9,5.1,1.5,10.2,6.1,12.6c4.5,2.4,10.1,1.7,13.9-1.9l66.6-63.3c1.1-1,2.5-1.6,4-1.6h261.2c26.8,0,48.6-21.8,48.6-48.6v-68.9
				C441,305.1,437.6,301.7,433.5,301.7L433.5,301.7z"/>
		</g>
	</g>
</g>
</svg>
