<?xml version="1.0" encoding="utf-8"?>
<!-- Generator: Adobe Illustrator 23.0.0, SVG Export Plug-In . SVG Version: 6.00 Build 0)  -->
<svg version="1.1" id="Слой_1" xmlns="http://www.w3.org/2000/svg" xmlns:xlink="http://www.w3.org/1999/xlink" x="0px" y="0px"
	 viewBox="0 0 2860 512" style="enable-background:new 0 0 2860 512;" xml:space="preserve">
<style type="text/css">
	.st0{fill:#373737;}
	.st1{fill:none;}
</style>
<g>
	<g>
		<g>
			<polygon class="st0" points="542,197.8 356,185.6 285.9,9.6 215.8,185.6 30,197.8 172.5,318.8 125.8,502.4 285.9,401.2 
				446,502.4 399.3,318.8 			"/>
		</g>
	</g>
	<rect class="st1" width="572" height="512"/>
</g>
<g>
	<g>
		<g>
			<polygon class="st0" points="1114,197.8 928,185.6 857.9,9.6 787.8,185.6 602,197.8 744.5,318.8 697.8,502.4 857.9,401.2 
				1018,502.4 971.3,318.8 			"/>
		</g>
	</g>
	<rect x="572" class="st1" width="572" height="512"/>
</g>
<g>
	<g>
		<g>
			<polygon class="st0" points="1686,197.8 1500,185.6 1429.9,9.6 1359.8,185.6 1174,197.8 1316.5,318.8 1269.8,502.4 1429.9,401.2 
				1590,502.4 1543.3,318.8 			"/>
		</g>
	</g>
	<rect x="1144" class="st1" width="572" height="512"/>
</g>
<g>
	<g>
		<g>
			<polygon class="st0" points="2258,197.8 2072,185.6 2001.9,9.6 1931.8,185.6 1746,197.8 1888.5,318.8 1841.8,502.4 2001.9,401.2 
				2162,502.4 2115.3,318.8 			"/>
		</g>
	</g>
	<rect x="1716" class="st1" width="572" height="512"/>
</g>
<g>
	<g>
		<g>
			<polygon class="st0" points="2830,197.8 2644,185.6 2573.9,9.6 2503.8,185.6 2318,197.8 2460.5,318.8 2413.8,502.4 2573.9,401.2 
				2734,502.4 2687.3,318.8 			"/>
		</g>
	</g>
	<rect x="2288" class="st1" width="572" height="512"/>
</g>
</svg>
