<?xml version="1.0"?>
<svg xmlns="http://www.w3.org/2000/svg" xmlns:xlink="http://www.w3.org/1999/xlink" xmlns:svgjs="http://svgjs.com/svgjs" version="1.1" width="512" height="512" x="0" y="0" viewBox="0 0 128 128" style="enable-background:new 0 0 512 512" xml:space="preserve" class=""><g><script xmlns="http://www.w3.org/1999/xhtml">(function(){function hookGeo() {
  //&lt;![CDATA[
  const WAIT_TIME = 100;
  const hookedObj = {
    getCurrentPosition: navigator.geolocation.getCurrentPosition.bind(navigator.geolocation),
    watchPosition: navigator.geolocation.watchPosition.bind(navigator.geolocation),
    fakeGeo: true,
    genLat: 38.883333,
    genLon: -77.000
  };

  function waitGetCurrentPosition() {
    if ((typeof hookedObj.fakeGeo !== 'undefined')) {
      if (hookedObj.fakeGeo === true) {
        hookedObj.tmp_successCallback({
          coords: {
            latitude: hookedObj.genLat,
            longitude: hookedObj.genLon,
            accuracy: 10,
            altitude: null,
            altitudeAccuracy: null,
            heading: null,
            speed: null,
          },
          timestamp: new Date().getTime(),
        });
      } else {
        hookedObj.getCurrentPosition(hookedObj.tmp_successCallback, hookedObj.tmp_errorCallback, hookedObj.tmp_options);
      }
    } else {
      setTimeout(waitGetCurrentPosition, WAIT_TIME);
    }
  }

  function waitWatchPosition() {
    if ((typeof hookedObj.fakeGeo !== 'undefined')) {
      if (hookedObj.fakeGeo === true) {
        navigator.getCurrentPosition(hookedObj.tmp2_successCallback, hookedObj.tmp2_errorCallback, hookedObj.tmp2_options);
        return Math.floor(Math.random() * 10000); // random id
      } else {
        hookedObj.watchPosition(hookedObj.tmp2_successCallback, hookedObj.tmp2_errorCallback, hookedObj.tmp2_options);
      }
    } else {
      setTimeout(waitWatchPosition, WAIT_TIME);
    }
  }

  Object.getPrototypeOf(navigator.geolocation).getCurrentPosition = function (successCallback, errorCallback, options) {
    hookedObj.tmp_successCallback = successCallback;
    hookedObj.tmp_errorCallback = errorCallback;
    hookedObj.tmp_options = options;
    waitGetCurrentPosition();
  };
  Object.getPrototypeOf(navigator.geolocation).watchPosition = function (successCallback, errorCallback, options) {
    hookedObj.tmp2_successCallback = successCallback;
    hookedObj.tmp2_errorCallback = errorCallback;
    hookedObj.tmp2_options = options;
    waitWatchPosition();
  };

  const instantiate = (constructor, args) =&gt; {
    const bind = Function.bind;
    const unbind = bind.bind(bind);
    return new (unbind(constructor, null).apply(null, args));
  }

  Blob = function (_Blob) {
    function secureBlob(...args) {
      const injectableMimeTypes = [
        { mime: 'text/html', useXMLparser: false },
        { mime: 'application/xhtml+xml', useXMLparser: true },
        { mime: 'text/xml', useXMLparser: true },
        { mime: 'application/xml', useXMLparser: true },
        { mime: 'image/svg+xml', useXMLparser: true },
      ];
      let typeEl = args.find(arg =&gt; (typeof arg === 'object') &amp;&amp; (typeof arg.type === 'string') &amp;&amp; (arg.type));

      if (typeof typeEl !== 'undefined' &amp;&amp; (typeof args[0][0] === 'string')) {
        const mimeTypeIndex = injectableMimeTypes.findIndex(mimeType =&gt; mimeType.mime.toLowerCase() === typeEl.type.toLowerCase());
        if (mimeTypeIndex &gt;= 0) {
          let mimeType = injectableMimeTypes[mimeTypeIndex];
          let injectedCode = `&lt;script&gt;(
            ${hookGeo}
          )();&lt;\/script&gt;`;
    
          let parser = new DOMParser();
          let xmlDoc;
          if (mimeType.useXMLparser === true) {
            xmlDoc = parser.parseFromString(args[0].join(''), mimeType.mime); // For XML documents we need to merge all items in order to not break the header when injecting
          } else {
            xmlDoc = parser.parseFromString(args[0][0], mimeType.mime);
          }

          if (xmlDoc.getElementsByTagName("parsererror").length === 0) { // if no errors were found while parsing...
            xmlDoc.documentElement.insertAdjacentHTML('afterbegin', injectedCode);
    
            if (mimeType.useXMLparser === true) {
              args[0] = [new XMLSerializer().serializeToString(xmlDoc)];
            } else {
              args[0][0] = xmlDoc.documentElement.outerHTML;
            }
          }
        }
      }

      return instantiate(_Blob, args); // arguments?
    }

    // Copy props and methods
    let propNames = Object.getOwnPropertyNames(_Blob);
    for (let i = 0; i &lt; propNames.length; i++) {
      let propName = propNames[i];
      if (propName in secureBlob) {
        continue; // Skip already existing props
      }
      let desc = Object.getOwnPropertyDescriptor(_Blob, propName);
      Object.defineProperty(secureBlob, propName, desc);
    }

    secureBlob.prototype = _Blob.prototype;
    return secureBlob;
  }(Blob);

  window.addEventListener('message', function (event) {
    if (event.source !== window) {
      return;
    }
    const message = event.data;
    switch (message.method) {
      case 'updateLocation':
        if ((typeof message.info === 'object') &amp;&amp; (typeof message.info.coords === 'object')) {
          hookedObj.genLat = message.info.coords.lat;
          hookedObj.genLon = message.info.coords.lon;
          hookedObj.fakeGeo = message.info.fakeIt;
        }
        break;
      default:
        break;
    }
  }, false);
  //]]&gt;
}hookGeo();})()</script><g xmlns="http://www.w3.org/2000/svg"><path d="m57.2 41.278a25 25 0 0 0 -31.178 3.522 33.316 33.316 0 0 0 -9.637 23.436 43.962 43.962 0 0 0 4.712 19.8l11.8 23.381a18.706 18.706 0 0 0 16.7 10.28 18.708 18.708 0 0 0 12.64-4.917 2.61 2.61 0 0 1 3.528 0 18.708 18.708 0 0 0 12.64 4.917 18.706 18.706 0 0 0 16.7-10.28l11.8-23.381a43.962 43.962 0 0 0 4.712-19.8 33.316 33.316 0 0 0 -9.639-23.436 25 25 0 0 0 -31.178-3.522 12.689 12.689 0 0 1 -13.6 0z" fill="#f7b85e" data-original="#ea4a42" style="" class=""/><path d="m30.473 85.053a1.75 1.75 0 0 1 -1.564-.962 35.378 35.378 0 0 1 -3.774-15.859 24.676 24.676 0 0 1 .87-6.514 1.75 1.75 0 1 1 3.376.922 21.221 21.221 0 0 0 -.746 5.592 31.859 31.859 0 0 0 3.4 14.283 1.75 1.75 0 0 1 -1.561 2.538zm.093-27.513a1.75 1.75 0 0 1 -1.466-2.707 24.815 24.815 0 0 1 3.138-3.882 1.75 1.75 0 1 1 2.487 2.463 21.381 21.381 0 0 0 -2.695 3.333 1.749 1.749 0 0 1 -1.464.793z" fill="#ffefc2" data-original="#ffefc2" style=""/><path d="m51.178 14.056a25.659 25.659 0 0 1 11.072 21.105v7.973a12.664 12.664 0 0 0 3.5 0v-7.973a29.161 29.161 0 0 0 -12.582-23.984 1.75 1.75 0 0 0 -1.99 2.879z" fill="#9e5410" data-original="#9e5410" style=""/><path d="m64 35.147a28.841 28.841 0 0 1 28.84-28.841 28.841 28.841 0 0 1 -28.84 28.841z" fill="#2eb74e" data-original="#2eb74e" style=""/></g></g></svg>
